<svg width="202" height="40" viewBox="0 0 202 40" fill="none" xmlns="http://www.w3.org/2000/svg">
<path d="M16.5586 9.09817C16.7054 8.80439 16.9371 8.5615 17.2236 8.401C17.5101 8.24049 17.8382 8.16978 18.1654 8.19804C18.4926 8.2263 18.8038 8.35222 19.0585 8.55948C19.3133 8.76673 19.4998 9.04575 19.5941 9.36034L23.3218 21.7889L26.3942 15.6525C26.5303 15.3803 26.7394 15.1515 26.9983 14.9915C27.2571 14.8316 27.5554 14.7468 27.8597 14.7468C28.1639 14.7468 28.4622 14.8316 28.721 14.9915C28.9799 15.1515 29.189 15.3803 29.3252 15.6525L32.1455 21.3014H42.0548C43.5302 18.2598 44.2787 14.9169 44.2413 11.5366C44.1768 5.17584 39.0736 0 32.8655 0C27.9406 0 24.6726 3.02521 22.9398 5.22295C21.2111 3.02214 17.9391 0 13.0142 0C6.80606 0 1.70293 5.17584 1.63841 11.5366C1.61193 13.733 1.92031 15.9207 2.55294 18.0243H12.0956L16.5586 9.09817Z" fill="#5F6F52"/>
<path d="M29.6674 23.6734L27.8557 20.0501L24.4055 26.9505C24.2694 27.2226 24.0601 27.4514 23.8013 27.6113C23.5425 27.7712 23.2442 27.8558 22.94 27.8558C22.8943 27.8558 22.8471 27.8538 22.7987 27.8497C22.4707 27.8225 22.1585 27.6971 21.9028 27.49C21.6471 27.2828 21.4596 27.0035 21.3649 26.6883L17.6372 14.2598L14.5649 20.3962C14.4294 20.6669 14.2216 20.8948 13.9646 21.0546C13.7075 21.2144 13.4112 21.2999 13.1086 21.3015H3.82504C4.78087 23.3013 6.05316 25.2696 7.64189 27.2065C9.56414 29.5497 13.0492 33.2959 21.0976 38.7595C21.6404 39.1315 22.283 39.3306 22.941 39.3306C23.599 39.3306 24.2416 39.1315 24.7844 38.7595C32.8329 33.2959 36.3179 29.5497 38.2402 27.2065C38.9325 26.3638 39.5819 25.4868 40.186 24.5787H31.1329C30.8286 24.5787 30.5304 24.494 30.2715 24.3341C30.0127 24.1742 29.8035 23.9454 29.6674 23.6734ZM44.2414 21.3015H42.055C41.5102 22.4367 40.8856 23.5318 40.186 24.5787H44.2414C44.676 24.5787 45.0928 24.406 45.4001 24.0987C45.7074 23.7915 45.88 23.3747 45.88 22.9401C45.88 22.5055 45.7074 22.0887 45.4001 21.7815C45.0928 21.4742 44.676 21.3015 44.2414 21.3015ZM1.63857 18.0244C1.204 18.0244 0.787218 18.197 0.479926 18.5043C0.172635 18.8116 0 19.2284 0 19.663C0 20.0975 0.172635 20.5143 0.479926 20.8216C0.787218 21.1289 1.204 21.3015 1.63857 21.3015H3.82504C3.31831 20.2431 2.8931 19.1475 2.5531 18.0244H1.63857Z" fill="#5F6F52"/>
<path d="M72.9269 9.74725V16.509C72.6613 16.8293 72.2511 17.1769 71.6964 17.5519C71.1417 17.9191 70.4269 18.2355 69.5519 18.5012C68.6769 18.7668 67.6183 18.8996 66.3761 18.8996C65.2745 18.8996 64.2706 18.7199 63.3644 18.3605C62.4581 17.9933 61.6769 17.4582 61.0206 16.7551C60.3722 16.0519 59.8722 15.1926 59.5206 14.1769C59.1691 13.1535 58.9933 11.9855 58.9933 10.673V9.60663C58.9933 8.29413 59.1613 7.12616 59.4972 6.10272C59.8409 5.07928 60.3292 4.216 60.962 3.51288C61.5948 2.80975 62.3488 2.2746 63.2238 1.90741C64.0988 1.54022 65.0714 1.35663 66.1417 1.35663C67.6261 1.35663 68.8448 1.59882 69.798 2.08319C70.7511 2.55975 71.4777 3.22382 71.9777 4.07538C72.4855 4.91913 72.798 5.88788 72.9152 6.98163H69.505C69.4191 6.4035 69.255 5.8996 69.0128 5.46991C68.7706 5.04022 68.423 4.70428 67.9698 4.4621C67.5245 4.21991 66.9464 4.09882 66.2355 4.09882C65.6495 4.09882 65.1261 4.21991 64.6652 4.4621C64.212 4.69647 63.8292 5.04413 63.5167 5.50507C63.2042 5.966 62.9659 6.53632 62.8019 7.216C62.6378 7.89569 62.5558 8.68475 62.5558 9.58319V10.673C62.5558 11.5637 62.6417 12.3527 62.8136 13.0402C62.9855 13.7199 63.2394 14.2941 63.5753 14.7629C63.9191 15.2238 64.3409 15.5715 64.8409 15.8058C65.3409 16.0402 65.923 16.1574 66.587 16.1574C67.1417 16.1574 67.6027 16.1105 67.9698 16.0168C68.3448 15.923 68.6456 15.8098 68.8722 15.6769C69.1066 15.5363 69.2863 15.4035 69.4113 15.2785V12.2551H66.2003V9.74725H72.9269ZM78.9269 8.75116V18.6652H75.5519V5.98553H78.7277L78.9269 8.75116ZM82.7472 5.9035L82.6886 9.03241C82.5245 9.00897 82.3253 8.98944 82.0909 8.97382C81.8644 8.95038 81.6573 8.93866 81.4698 8.93866C80.9933 8.93866 80.5792 9.00116 80.2277 9.12616C79.8839 9.24335 79.5948 9.41913 79.3605 9.6535C79.1339 9.88788 78.962 10.173 78.8448 10.509C78.7355 10.8449 78.673 11.2277 78.6573 11.6574L77.9777 11.4465C77.9777 10.6262 78.0597 9.87225 78.2238 9.18475C78.3878 8.48944 78.6261 7.88397 78.9386 7.36835C79.2589 6.85272 79.6495 6.45428 80.1105 6.17303C80.5714 5.89178 81.0988 5.75116 81.6925 5.75116C81.88 5.75116 82.0714 5.76678 82.2667 5.79803C82.462 5.82147 82.6222 5.85663 82.7472 5.9035ZM89.9425 18.8996C88.9581 18.8996 88.0753 18.7433 87.2941 18.4308C86.5128 18.1105 85.8488 17.6691 85.3019 17.1066C84.7628 16.5441 84.3488 15.8918 84.0597 15.1496C83.7706 14.3996 83.6261 13.6027 83.6261 12.759V12.2902C83.6261 11.3293 83.7628 10.4504 84.0363 9.6535C84.3097 8.85663 84.7003 8.16522 85.2081 7.57928C85.7238 6.99335 86.3488 6.54413 87.0831 6.23163C87.8175 5.91132 88.6456 5.75116 89.5675 5.75116C90.4659 5.75116 91.2628 5.8996 91.9581 6.19647C92.6534 6.49335 93.2355 6.91522 93.7042 7.4621C94.1808 8.00897 94.5402 8.66522 94.7823 9.43085C95.0245 10.1887 95.1456 11.0324 95.1456 11.9621V13.3683H85.0675V11.1183H91.8292V10.8605C91.8292 10.3918 91.7433 9.97382 91.5714 9.60663C91.4073 9.23163 91.1573 8.93475 90.8214 8.716C90.4855 8.49725 90.0558 8.38788 89.5323 8.38788C89.087 8.38788 88.7042 8.48553 88.3839 8.68085C88.0636 8.87616 87.8019 9.1496 87.5988 9.50116C87.4034 9.85272 87.255 10.2668 87.1534 10.7433C87.0597 11.2121 87.0128 11.7277 87.0128 12.2902V12.759C87.0128 13.2668 87.0831 13.7355 87.2238 14.1652C87.3722 14.5949 87.5792 14.966 87.8448 15.2785C88.1183 15.591 88.4464 15.8332 88.8292 16.0051C89.2198 16.1769 89.6613 16.2629 90.1534 16.2629C90.7628 16.2629 91.3292 16.1457 91.8527 15.9113C92.3839 15.6691 92.8409 15.3058 93.2238 14.8215L94.8644 16.6027C94.5988 16.9855 94.2355 17.3527 93.7745 17.7043C93.3214 18.0558 92.7745 18.3449 92.1339 18.5715C91.4933 18.7902 90.7628 18.8996 89.9425 18.8996ZM103.911 15.8058V10.1574C103.911 9.75116 103.845 9.4035 103.712 9.11444C103.579 8.81757 103.372 8.5871 103.091 8.42303C102.818 8.25897 102.462 8.17694 102.025 8.17694C101.65 8.17694 101.325 8.24335 101.052 8.37616C100.778 8.50116 100.568 8.68475 100.419 8.92694C100.271 9.16132 100.196 9.43866 100.196 9.75897H96.8214C96.8214 9.21991 96.9464 8.70819 97.1964 8.22382C97.4464 7.73944 97.8097 7.31366 98.2863 6.94647C98.7628 6.57147 99.3292 6.2785 99.9855 6.06757C100.65 5.85663 101.392 5.75116 102.212 5.75116C103.196 5.75116 104.071 5.91522 104.837 6.24335C105.603 6.57147 106.204 7.06366 106.642 7.71991C107.087 8.37616 107.31 9.19647 107.31 10.1808V15.6066C107.31 16.3019 107.353 16.8723 107.439 17.3176C107.525 17.7551 107.65 18.1379 107.814 18.466V18.6652H104.403C104.239 18.3215 104.114 17.8918 104.028 17.3762C103.95 16.8527 103.911 16.3293 103.911 15.8058ZM104.357 10.9426L104.38 12.8527H102.493C102.048 12.8527 101.661 12.9035 101.333 13.0051C101.005 13.1066 100.735 13.2512 100.525 13.4387C100.314 13.6183 100.157 13.8293 100.056 14.0715C99.962 14.3137 99.9152 14.5793 99.9152 14.8683C99.9152 15.1574 99.9816 15.4191 100.114 15.6535C100.247 15.8801 100.439 16.0598 100.689 16.1926C100.939 16.3176 101.232 16.3801 101.568 16.3801C102.075 16.3801 102.517 16.2785 102.892 16.0754C103.267 15.8723 103.556 15.6223 103.759 15.3254C103.97 15.0285 104.079 14.7473 104.087 14.4816L104.978 15.9113C104.853 16.2316 104.681 16.5637 104.462 16.9074C104.251 17.2512 103.982 17.5754 103.653 17.8801C103.325 18.1769 102.931 18.423 102.47 18.6183C102.009 18.8058 101.462 18.8996 100.829 18.8996C100.025 18.8996 99.2941 18.7394 98.6378 18.4191C97.9894 18.091 97.4738 17.6418 97.0909 17.0715C96.7159 16.4933 96.5284 15.8371 96.5284 15.1027C96.5284 14.4387 96.6534 13.8488 96.9034 13.3332C97.1534 12.8176 97.5206 12.384 98.005 12.0324C98.4972 11.673 99.1105 11.4035 99.8448 11.2238C100.579 11.0363 101.431 10.9426 102.4 10.9426H104.357ZM116.122 5.98553V8.37616H108.739V5.98553H116.122ZM110.568 2.85663H113.943V14.8449C113.943 15.2121 113.989 15.4933 114.083 15.6887C114.185 15.884 114.333 16.0207 114.528 16.0988C114.724 16.1691 114.97 16.2043 115.267 16.2043C115.478 16.2043 115.665 16.1965 115.829 16.1808C116.001 16.1574 116.146 16.134 116.263 16.1105L116.275 18.5949C115.985 18.6887 115.673 18.7629 115.337 18.8176C115.001 18.8723 114.63 18.8996 114.224 18.8996C113.482 18.8996 112.833 18.7785 112.278 18.5363C111.732 18.2863 111.31 17.8879 111.013 17.341C110.716 16.7941 110.568 16.0754 110.568 15.1848V2.85663Z" fill="#495057"/>
<path d="M127.747 1.60272V18.6652H124.232V1.60272H127.747ZM134.544 8.89178V11.634H126.786V8.89178H134.544ZM135.364 1.60272V4.35663H126.786V1.60272H135.364ZM140.755 5.98553V18.6652H137.368V5.98553H140.755ZM137.157 2.68085C137.157 2.18866 137.329 1.78241 137.673 1.4621C138.017 1.14178 138.478 0.981628 139.056 0.981628C139.626 0.981628 140.083 1.14178 140.427 1.4621C140.778 1.78241 140.954 2.18866 140.954 2.68085C140.954 3.17303 140.778 3.57928 140.427 3.8996C140.083 4.21991 139.626 4.38007 139.056 4.38007C138.478 4.38007 138.017 4.21991 137.673 3.8996C137.329 3.57928 137.157 3.17303 137.157 2.68085ZM149.755 5.98553V8.37616H142.372V5.98553H149.755ZM144.2 2.85663H147.575V14.8449C147.575 15.2121 147.622 15.4933 147.716 15.6887C147.818 15.884 147.966 16.0207 148.161 16.0988C148.357 16.1691 148.603 16.2043 148.9 16.2043C149.11 16.2043 149.298 16.1965 149.462 16.1808C149.634 16.1574 149.778 16.134 149.896 16.1105L149.907 18.5949C149.618 18.6887 149.306 18.7629 148.97 18.8176C148.634 18.8723 148.263 18.8996 147.857 18.8996C147.114 18.8996 146.466 18.7785 145.911 18.5363C145.364 18.2863 144.943 17.8879 144.646 17.341C144.349 16.7941 144.2 16.0754 144.2 15.1848V2.85663ZM154.982 8.69257V18.6652H151.607V5.98553H154.771L154.982 8.69257ZM154.489 11.8801H153.575C153.575 10.9426 153.696 10.0988 153.939 9.34882C154.181 8.591 154.521 7.94647 154.958 7.41522C155.396 6.87616 155.915 6.466 156.517 6.18475C157.126 5.89569 157.806 5.75116 158.556 5.75116C159.15 5.75116 159.693 5.8371 160.185 6.00897C160.677 6.18085 161.099 6.45428 161.45 6.82928C161.81 7.20428 162.083 7.70038 162.271 8.31757C162.466 8.93475 162.564 9.68866 162.564 10.5793V18.6652H159.165V10.5676C159.165 10.0051 159.087 9.56757 158.931 9.25507C158.775 8.94257 158.544 8.72382 158.239 8.59882C157.943 8.466 157.575 8.3996 157.138 8.3996C156.685 8.3996 156.29 8.48944 155.954 8.66913C155.626 8.84882 155.353 9.09882 155.134 9.41913C154.923 9.73163 154.763 10.0988 154.653 10.5207C154.544 10.9426 154.489 11.3957 154.489 11.8801ZM170.966 18.8996C169.982 18.8996 169.099 18.7433 168.318 18.4308C167.536 18.1105 166.872 17.6691 166.325 17.1066C165.786 16.5441 165.372 15.8918 165.083 15.1496C164.794 14.3996 164.65 13.6027 164.65 12.759V12.2902C164.65 11.3293 164.786 10.4504 165.06 9.6535C165.333 8.85663 165.724 8.16522 166.232 7.57928C166.747 6.99335 167.372 6.54413 168.107 6.23163C168.841 5.91132 169.669 5.75116 170.591 5.75116C171.489 5.75116 172.286 5.8996 172.982 6.19647C173.677 6.49335 174.259 6.91522 174.728 7.4621C175.204 8.00897 175.564 8.66522 175.806 9.43085C176.048 10.1887 176.169 11.0324 176.169 11.9621V13.3683H166.091V11.1183H172.853V10.8605C172.853 10.3918 172.767 9.97382 172.595 9.60663C172.431 9.23163 172.181 8.93475 171.845 8.716C171.509 8.49725 171.079 8.38788 170.556 8.38788C170.11 8.38788 169.728 8.48553 169.407 8.68085C169.087 8.87616 168.825 9.1496 168.622 9.50116C168.427 9.85272 168.278 10.2668 168.177 10.7433C168.083 11.2121 168.036 11.7277 168.036 12.2902V12.759C168.036 13.2668 168.107 13.7355 168.247 14.1652C168.396 14.5949 168.603 14.966 168.868 15.2785C169.142 15.591 169.47 15.8332 169.853 16.0051C170.243 16.1769 170.685 16.2629 171.177 16.2629C171.786 16.2629 172.353 16.1457 172.876 15.9113C173.407 15.6691 173.864 15.3058 174.247 14.8215L175.888 16.6027C175.622 16.9855 175.259 17.3527 174.798 17.7043C174.345 18.0558 173.798 18.3449 173.157 18.5715C172.517 18.7902 171.786 18.8996 170.966 18.8996ZM184.946 15.1613C184.946 14.9191 184.876 14.7004 184.735 14.5051C184.595 14.3098 184.333 14.1301 183.95 13.966C183.575 13.7941 183.032 13.6379 182.321 13.4973C181.681 13.3566 181.083 13.1808 180.528 12.9699C179.982 12.7512 179.505 12.4894 179.099 12.1848C178.7 11.8801 178.388 11.5207 178.161 11.1066C177.935 10.6848 177.821 10.2043 177.821 9.66522C177.821 9.13397 177.935 8.63397 178.161 8.16522C178.396 7.69647 178.728 7.28241 179.157 6.92303C179.595 6.55585 180.126 6.27069 180.751 6.06757C181.384 5.85663 182.095 5.75116 182.884 5.75116C183.985 5.75116 184.931 5.92694 185.72 6.2785C186.517 6.63007 187.126 7.11444 187.548 7.73163C187.978 8.341 188.193 9.03632 188.193 9.81757H184.818C184.818 9.48944 184.747 9.19647 184.607 8.93866C184.474 8.67303 184.263 8.466 183.974 8.31757C183.693 8.16132 183.325 8.08319 182.872 8.08319C182.497 8.08319 182.173 8.1496 181.9 8.28241C181.626 8.40741 181.415 8.57928 181.267 8.79803C181.126 9.00897 181.056 9.24335 181.056 9.50116C181.056 9.69647 181.095 9.87225 181.173 10.0285C181.259 10.1769 181.396 10.3137 181.583 10.4387C181.771 10.5637 182.013 10.6808 182.31 10.7902C182.614 10.8918 182.989 10.9855 183.435 11.0715C184.349 11.259 185.165 11.5051 185.884 11.8098C186.603 12.1066 187.173 12.5129 187.595 13.0285C188.017 13.5363 188.228 14.2043 188.228 15.0324C188.228 15.5949 188.103 16.1105 187.853 16.5793C187.603 17.048 187.243 17.4582 186.775 17.8098C186.306 18.1535 185.743 18.423 185.087 18.6183C184.439 18.8058 183.708 18.8996 182.896 18.8996C181.716 18.8996 180.716 18.6887 179.896 18.2668C179.083 17.8449 178.466 17.3098 178.044 16.6613C177.63 16.0051 177.423 15.3332 177.423 14.6457H180.622C180.638 15.1066 180.755 15.4777 180.974 15.759C181.2 16.0402 181.485 16.2433 181.829 16.3683C182.181 16.4933 182.56 16.5558 182.966 16.5558C183.403 16.5558 183.767 16.4973 184.056 16.3801C184.345 16.2551 184.564 16.091 184.712 15.8879C184.868 15.6769 184.946 15.4348 184.946 15.1613ZM197.275 15.1613C197.275 14.9191 197.204 14.7004 197.064 14.5051C196.923 14.3098 196.661 14.1301 196.278 13.966C195.903 13.7941 195.36 13.6379 194.65 13.4973C194.009 13.3566 193.411 13.1808 192.857 12.9699C192.31 12.7512 191.833 12.4894 191.427 12.1848C191.028 11.8801 190.716 11.5207 190.489 11.1066C190.263 10.6848 190.15 10.2043 190.15 9.66522C190.15 9.13397 190.263 8.63397 190.489 8.16522C190.724 7.69647 191.056 7.28241 191.485 6.92303C191.923 6.55585 192.454 6.27069 193.079 6.06757C193.712 5.85663 194.423 5.75116 195.212 5.75116C196.314 5.75116 197.259 5.92694 198.048 6.2785C198.845 6.63007 199.454 7.11444 199.876 7.73163C200.306 8.341 200.521 9.03632 200.521 9.81757H197.146C197.146 9.48944 197.075 9.19647 196.935 8.93866C196.802 8.67303 196.591 8.466 196.302 8.31757C196.021 8.16132 195.653 8.08319 195.2 8.08319C194.825 8.08319 194.501 8.1496 194.228 8.28241C193.954 8.40741 193.743 8.57928 193.595 8.79803C193.454 9.00897 193.384 9.24335 193.384 9.50116C193.384 9.69647 193.423 9.87225 193.501 10.0285C193.587 10.1769 193.724 10.3137 193.911 10.4387C194.099 10.5637 194.341 10.6808 194.638 10.7902C194.943 10.8918 195.318 10.9855 195.763 11.0715C196.677 11.259 197.493 11.5051 198.212 11.8098C198.931 12.1066 199.501 12.5129 199.923 13.0285C200.345 13.5363 200.556 14.2043 200.556 15.0324C200.556 15.5949 200.431 16.1105 200.181 16.5793C199.931 17.048 199.571 17.4582 199.103 17.8098C198.634 18.1535 198.071 18.423 197.415 18.6183C196.767 18.8058 196.036 18.8996 195.224 18.8996C194.044 18.8996 193.044 18.6887 192.224 18.2668C191.411 17.8449 190.794 17.3098 190.372 16.6613C189.958 16.0051 189.751 15.3332 189.751 14.6457H192.95C192.966 15.1066 193.083 15.4777 193.302 15.759C193.528 16.0402 193.814 16.2433 194.157 16.3683C194.509 16.4933 194.888 16.5558 195.294 16.5558C195.732 16.5558 196.095 16.4973 196.384 16.3801C196.673 16.2551 196.892 16.091 197.04 15.8879C197.196 15.6769 197.275 15.4348 197.275 15.1613Z" fill="#5F6F52"/>
<path d="M59.4933 23.7121L62.0773 28.7092L64.6681 23.7121H66.1652L62.7335 29.9465V33.6652H61.4142V29.9465L57.9825 23.7121H59.4933ZM66.4659 30.049V29.8918C66.4659 29.3586 66.5434 28.8641 66.6984 28.4084C66.8533 27.9481 67.0766 27.5493 67.3683 27.2121C67.66 26.8703 68.0131 26.606 68.4279 26.4191C68.8426 26.2277 69.3074 26.132 69.8224 26.132C70.3419 26.132 70.809 26.2277 71.2238 26.4191C71.643 26.606 71.9985 26.8703 72.2902 27.2121C72.5864 27.5493 72.812 27.9481 72.9669 28.4084C73.1219 28.8641 73.1993 29.3586 73.1993 29.8918V30.049C73.1993 30.5822 73.1219 31.0767 72.9669 31.5324C72.812 31.9881 72.5864 32.3869 72.2902 32.7287C71.9985 33.0659 71.6453 33.3303 71.2306 33.5217C70.8204 33.7085 70.3556 33.8019 69.8361 33.8019C69.3165 33.8019 68.8494 33.7085 68.4347 33.5217C68.02 33.3303 67.6645 33.0659 67.3683 32.7287C67.0766 32.3869 66.8533 31.9881 66.6984 31.5324C66.5434 31.0767 66.4659 30.5822 66.4659 30.049ZM67.7306 29.8918V30.049C67.7306 30.4182 67.7739 30.7668 67.8605 31.0949C67.9471 31.4185 68.0769 31.7056 68.2501 31.9562C68.4279 32.2069 68.6489 32.4051 68.9132 32.551C69.1775 32.6922 69.4851 32.7629 69.8361 32.7629C70.1824 32.7629 70.4855 32.6922 70.7452 32.551C71.0096 32.4051 71.2283 32.2069 71.4015 31.9562C71.5747 31.7056 71.7045 31.4185 71.7911 31.0949C71.8823 30.7668 71.9279 30.4182 71.9279 30.049V29.8918C71.9279 29.5272 71.8823 29.1831 71.7911 28.8596C71.7045 28.5314 71.5724 28.242 71.3947 27.9914C71.2215 27.7362 71.0027 27.5357 70.7384 27.3898C70.4786 27.244 70.1733 27.1711 69.8224 27.1711C69.476 27.1711 69.1707 27.244 68.9064 27.3898C68.6466 27.5357 68.4279 27.7362 68.2501 27.9914C68.0769 28.242 67.9471 28.5314 67.8605 28.8596C67.7739 29.1831 67.7306 29.5272 67.7306 29.8918ZM79.5773 26.2687H80.7257V33.508C80.7257 34.1597 80.5935 34.7157 80.3292 35.176C80.0649 35.6363 79.6958 35.9849 79.2218 36.2219C78.7524 36.4634 78.2101 36.5842 77.5948 36.5842C77.3396 36.5842 77.0389 36.5432 76.6925 36.4611C76.3507 36.3836 76.0135 36.2492 75.6808 36.0578C75.3527 35.871 75.0769 35.618 74.8536 35.299L75.5167 34.5471C75.8266 34.9208 76.1502 35.1805 76.4874 35.3264C76.8292 35.4722 77.1665 35.5451 77.4991 35.5451C77.9002 35.5451 78.2465 35.4699 78.5382 35.3195C78.8299 35.1691 79.0555 34.9458 79.215 34.6496C79.379 34.3579 79.4611 33.9979 79.4611 33.5695V27.8957L79.5773 26.2687ZM74.4845 30.049V29.9055C74.4845 29.3404 74.5506 28.8277 74.6827 28.3674C74.8195 27.9025 75.0131 27.5038 75.2638 27.1711C75.519 26.8384 75.8266 26.5832 76.1866 26.4055C76.5467 26.2232 76.9523 26.132 77.4034 26.132C77.8683 26.132 78.2739 26.2141 78.6202 26.3781C78.9712 26.5376 79.2674 26.7723 79.5089 27.0822C79.755 27.3876 79.9487 27.7567 80.09 28.1896C80.2312 28.6226 80.3292 29.1125 80.3839 29.6594V30.2883C80.3338 30.8306 80.2358 31.3182 80.09 31.7512C79.9487 32.1841 79.755 32.5532 79.5089 32.8586C79.2674 33.1639 78.9712 33.3986 78.6202 33.5627C78.2693 33.7222 77.8592 33.8019 77.3898 33.8019C76.9477 33.8019 76.5467 33.7085 76.1866 33.5217C75.8312 33.3348 75.5258 33.0728 75.2706 32.7355C75.0154 32.3983 74.8195 32.0018 74.6827 31.5461C74.5506 31.0858 74.4845 30.5868 74.4845 30.049ZM75.7491 29.9055V30.049C75.7491 30.4182 75.7856 30.7645 75.8585 31.0881C75.936 31.4116 76.0522 31.6965 76.2072 31.9426C76.3667 32.1887 76.5695 32.3823 76.8156 32.5236C77.0616 32.6603 77.3556 32.7287 77.6974 32.7287C78.1167 32.7287 78.463 32.6398 78.7365 32.4621C79.0099 32.2844 79.2264 32.0497 79.3859 31.758C79.5499 31.4663 79.6775 31.1496 79.7687 30.8078V29.1603C79.7185 28.9097 79.6411 28.6682 79.5363 28.4357C79.436 28.1988 79.3038 27.9891 79.1398 27.8068C78.9803 27.62 78.782 27.4719 78.545 27.3625C78.3081 27.2531 78.0301 27.1984 77.7111 27.1984C77.3647 27.1984 77.0662 27.2713 76.8156 27.4172C76.5695 27.5585 76.3667 27.7544 76.2072 28.0051C76.0522 28.2512 75.936 28.5383 75.8585 28.8664C75.7856 29.19 75.7491 29.5363 75.7491 29.9055ZM87.0079 32.4006V28.593C87.0079 28.3013 86.9487 28.0484 86.8302 27.8342C86.7163 27.6154 86.5431 27.4468 86.3107 27.3283C86.0782 27.2098 85.7911 27.1506 85.4493 27.1506C85.1303 27.1506 84.8501 27.2053 84.6085 27.3146C84.3715 27.424 84.1847 27.5676 84.048 27.7453C83.9158 27.923 83.8497 28.1144 83.8497 28.3195H82.5851C82.5851 28.0552 82.6534 27.7932 82.7902 27.5334C82.9269 27.2736 83.1228 27.0389 83.3781 26.8293C83.6378 26.6151 83.9477 26.4465 84.3077 26.3234C84.6723 26.1958 85.0779 26.132 85.5245 26.132C86.0623 26.132 86.5363 26.2232 86.9464 26.4055C87.3611 26.5877 87.6847 26.8635 87.9171 27.2326C88.1541 27.5972 88.2726 28.0552 88.2726 28.6066V32.0519C88.2726 32.298 88.2931 32.5601 88.3341 32.8381C88.3797 33.1161 88.4458 33.3553 88.5323 33.5558V33.6652H87.213C87.1492 33.5194 87.0991 33.3257 87.0626 33.0842C87.0262 32.8381 87.0079 32.6102 87.0079 32.4006ZM87.2267 29.1808L87.2404 30.0695H85.962C85.602 30.0695 85.2807 30.0991 84.9982 30.1584C84.7156 30.2131 84.4786 30.2974 84.2872 30.4113C84.0958 30.5252 83.95 30.6688 83.8497 30.842C83.7495 31.0106 83.6993 31.2088 83.6993 31.4367C83.6993 31.6691 83.7517 31.881 83.8566 32.0724C83.9614 32.2639 84.1186 32.4165 84.3282 32.5305C84.5424 32.6398 84.8045 32.6945 85.1144 32.6945C85.5017 32.6945 85.8435 32.6125 86.1398 32.4484C86.436 32.2844 86.6707 32.0838 86.8439 31.8469C87.0216 31.6099 87.1173 31.3797 87.131 31.1564L87.671 31.7648C87.6391 31.9562 87.5525 32.1682 87.4113 32.4006C87.27 32.633 87.0809 32.8563 86.8439 33.0705C86.6115 33.2801 86.3335 33.4556 86.0099 33.5969C85.6909 33.7336 85.3309 33.8019 84.9298 33.8019C84.4285 33.8019 83.9887 33.704 83.6105 33.508C83.2368 33.312 82.9451 33.05 82.7355 32.7219C82.5304 32.3892 82.4279 32.0178 82.4279 31.6076C82.4279 31.2111 82.5053 30.8625 82.6603 30.5617C82.8152 30.2564 83.0385 30.0034 83.3302 29.8029C83.6219 29.5978 83.9728 29.4429 84.3829 29.3381C84.7931 29.2333 85.2511 29.1808 85.757 29.1808H87.2267ZM99.2306 31.1496C99.2306 30.9172 99.1941 30.7121 99.1212 30.5344C99.0529 30.3521 98.9298 30.188 98.7521 30.0422C98.5789 29.8963 98.3374 29.7573 98.0275 29.6252C97.7221 29.493 97.3348 29.3586 96.8654 29.2219C96.3732 29.076 95.9288 28.9142 95.5323 28.7365C95.1359 28.5542 94.7963 28.3469 94.5138 28.1144C94.2312 27.882 94.0148 27.6154 93.8644 27.3146C93.714 27.0139 93.6388 26.6698 93.6388 26.2824C93.6388 25.895 93.7185 25.5373 93.8781 25.2092C94.0376 24.881 94.2654 24.5962 94.5616 24.3547C94.8624 24.1086 95.2202 23.9172 95.6349 23.7805C96.0496 23.6437 96.5122 23.5754 97.0226 23.5754C97.77 23.5754 98.4034 23.7189 98.923 24.006C99.4471 24.2886 99.8458 24.66 100.119 25.1203C100.393 25.576 100.529 26.0637 100.529 26.5832H99.2169C99.2169 26.2095 99.1372 25.8791 98.9777 25.592C98.8182 25.3003 98.5766 25.0724 98.2531 24.9084C97.9295 24.7398 97.5193 24.6555 97.0226 24.6555C96.5532 24.6555 96.1658 24.7261 95.8605 24.8674C95.5551 25.0086 95.3273 25.2001 95.1769 25.4416C95.031 25.6831 94.9581 25.9588 94.9581 26.2687C94.9581 26.4784 95.0014 26.6698 95.088 26.843C95.1792 27.0116 95.3182 27.1688 95.505 27.3146C95.6964 27.4605 95.9379 27.5949 96.2296 27.718C96.5258 27.841 96.879 27.9595 97.2892 28.0734C97.8543 28.2329 98.3419 28.4107 98.7521 28.6066C99.1622 28.8026 99.4995 29.0236 99.7638 29.2697C100.033 29.5113 100.231 29.787 100.359 30.0969C100.491 30.4022 100.557 30.7486 100.557 31.1359C100.557 31.5415 100.475 31.9084 100.311 32.2365C100.147 32.5646 99.9119 32.8449 99.6066 33.0773C99.3012 33.3098 98.9344 33.4898 98.506 33.6174C98.0822 33.7404 97.6082 33.8019 97.0841 33.8019C96.6238 33.8019 96.1704 33.7381 95.7238 33.6105C95.2817 33.4829 94.8784 33.2915 94.5138 33.0363C94.1538 32.7811 93.8644 32.4667 93.6456 32.093C93.4314 31.7147 93.3243 31.2772 93.3243 30.7805H94.6368C94.6368 31.1223 94.7029 31.4162 94.8351 31.6623C94.9672 31.9038 95.1473 32.1043 95.3751 32.2639C95.6075 32.4234 95.8696 32.5418 96.1613 32.6193C96.4575 32.6922 96.7651 32.7287 97.0841 32.7287C97.5444 32.7287 97.934 32.6649 98.2531 32.5373C98.5721 32.4097 98.8136 32.2274 98.9777 31.9904C99.1463 31.7534 99.2306 31.4732 99.2306 31.1496ZM105.144 26.2687V27.2394H101.145V26.2687H105.144ZM102.498 24.4709H103.763V31.8332C103.763 32.0838 103.802 32.273 103.879 32.4006C103.957 32.5282 104.057 32.6125 104.18 32.6535C104.303 32.6945 104.435 32.715 104.576 32.715C104.681 32.715 104.79 32.7059 104.904 32.6877C105.023 32.6649 105.112 32.6467 105.171 32.633L105.178 33.6652C105.078 33.6971 104.945 33.7267 104.781 33.7541C104.622 33.786 104.428 33.8019 104.2 33.8019C103.89 33.8019 103.606 33.7404 103.346 33.6174C103.086 33.4943 102.879 33.2892 102.724 33.0021C102.573 32.7105 102.498 32.3185 102.498 31.8264V24.4709ZM111.152 31.9562V26.2687H112.424V33.6652H111.214L111.152 31.9562ZM111.392 30.3976L111.918 30.384C111.918 30.8762 111.866 31.3319 111.761 31.7512C111.661 32.1659 111.497 32.5259 111.269 32.8312C111.041 33.1366 110.742 33.3758 110.373 33.549C110.004 33.7176 109.555 33.8019 109.026 33.8019C108.666 33.8019 108.336 33.7495 108.035 33.6447C107.739 33.5399 107.484 33.3781 107.27 33.1594C107.055 32.9406 106.889 32.6558 106.771 32.3049C106.657 31.954 106.6 31.5324 106.6 31.0402V26.2687H107.864V31.0539C107.864 31.3866 107.901 31.6623 107.974 31.881C108.051 32.0952 108.154 32.2661 108.281 32.3937C108.414 32.5168 108.559 32.6034 108.719 32.6535C108.883 32.7036 109.052 32.7287 109.225 32.7287C109.762 32.7287 110.189 32.6262 110.503 32.4211C110.818 32.2114 111.043 31.9312 111.18 31.5803C111.321 31.2248 111.392 30.8306 111.392 30.3976ZM119.014 32.2297V23.1652H120.285V33.6652H119.123L119.014 32.2297ZM114.037 30.049V29.9055C114.037 29.3404 114.106 28.8277 114.242 28.3674C114.384 27.9025 114.582 27.5038 114.837 27.1711C115.097 26.8384 115.404 26.5832 115.76 26.4055C116.12 26.2232 116.521 26.132 116.963 26.132C117.428 26.132 117.833 26.2141 118.18 26.3781C118.531 26.5376 118.827 26.7723 119.068 27.0822C119.315 27.3876 119.508 27.7567 119.65 28.1896C119.791 28.6226 119.889 29.1125 119.943 29.6594V30.2883C119.893 30.8306 119.795 31.3182 119.65 31.7512C119.508 32.1841 119.315 32.5532 119.068 32.8586C118.827 33.1639 118.531 33.3986 118.18 33.5627C117.829 33.7222 117.419 33.8019 116.949 33.8019C116.516 33.8019 116.12 33.7085 115.76 33.5217C115.404 33.3348 115.097 33.0728 114.837 32.7355C114.582 32.3983 114.384 32.0018 114.242 31.5461C114.106 31.0858 114.037 30.5868 114.037 30.049ZM115.309 29.9055V30.049C115.309 30.4182 115.345 30.7645 115.418 31.0881C115.496 31.4116 115.614 31.6965 115.774 31.9426C115.933 32.1887 116.136 32.3823 116.382 32.5236C116.628 32.6603 116.922 32.7287 117.264 32.7287C117.683 32.7287 118.027 32.6398 118.296 32.4621C118.569 32.2844 118.788 32.0497 118.952 31.758C119.116 31.4663 119.244 31.1496 119.335 30.8078V29.1603C119.28 28.9097 119.201 28.6682 119.096 28.4357C118.996 28.1988 118.863 27.9891 118.699 27.8068C118.54 27.62 118.342 27.4719 118.105 27.3625C117.872 27.2531 117.596 27.1984 117.277 27.1984C116.931 27.1984 116.633 27.2713 116.382 27.4172C116.136 27.5585 115.933 27.7544 115.774 28.0051C115.614 28.2512 115.496 28.5383 115.418 28.8664C115.345 29.19 115.309 29.5363 115.309 29.9055ZM123.628 26.2687V33.6652H122.357V26.2687H123.628ZM122.261 24.3068C122.261 24.1017 122.322 23.9286 122.445 23.7873C122.573 23.646 122.76 23.5754 123.006 23.5754C123.248 23.5754 123.432 23.646 123.56 23.7873C123.692 23.9286 123.758 24.1017 123.758 24.3068C123.758 24.5028 123.692 24.6714 123.56 24.8127C123.432 24.9494 123.248 25.0178 123.006 25.0178C122.76 25.0178 122.573 24.9494 122.445 24.8127C122.322 24.6714 122.261 24.5028 122.261 24.3068ZM125.323 30.049V29.8918C125.323 29.3586 125.401 28.8641 125.556 28.4084C125.711 27.9481 125.934 27.5493 126.226 27.2121C126.517 26.8703 126.871 26.606 127.285 26.4191C127.7 26.2277 128.165 26.132 128.68 26.132C129.199 26.132 129.666 26.2277 130.081 26.4191C130.5 26.606 130.856 26.8703 131.148 27.2121C131.444 27.5493 131.669 27.9481 131.824 28.4084C131.979 28.8641 132.057 29.3586 132.057 29.8918V30.049C132.057 30.5822 131.979 31.0767 131.824 31.5324C131.669 31.9881 131.444 32.3869 131.148 32.7287C130.856 33.0659 130.503 33.3303 130.088 33.5217C129.678 33.7085 129.213 33.8019 128.693 33.8019C128.174 33.8019 127.707 33.7085 127.292 33.5217C126.877 33.3303 126.522 33.0659 126.226 32.7287C125.934 32.3869 125.711 31.9881 125.556 31.5324C125.401 31.0767 125.323 30.5822 125.323 30.049ZM126.588 29.8918V30.049C126.588 30.4182 126.631 30.7668 126.718 31.0949C126.804 31.4185 126.934 31.7056 127.108 31.9562C127.285 32.2069 127.506 32.4051 127.771 32.551C128.035 32.6922 128.343 32.7629 128.693 32.7629C129.04 32.7629 129.343 32.6922 129.603 32.551C129.867 32.4051 130.086 32.2069 130.259 31.9562C130.432 31.7056 130.562 31.4185 130.649 31.0949C130.74 30.7668 130.785 30.4182 130.785 30.049V29.8918C130.785 29.5272 130.74 29.1831 130.649 28.8596C130.562 28.5314 130.43 28.242 130.252 27.9914C130.079 27.7362 129.86 27.5357 129.596 27.3898C129.336 27.244 129.031 27.1711 128.68 27.1711C128.333 27.1711 128.028 27.244 127.764 27.3898C127.504 27.5357 127.285 27.7362 127.108 27.9914C126.934 28.242 126.804 28.5314 126.718 28.8596C126.631 29.1831 126.588 29.5272 126.588 29.8918Z" fill="#495057"/>
</svg>
