<svg width="21" height="20" viewBox="0 0 21 20" fill="none" xmlns="http://www.w3.org/2000/svg">
<path fill-rule="evenodd" clip-rule="evenodd" d="M10.5 0C11.3977 0 12.3186 0.0275001 13.2111 0.0725001L14.2653 0.1325L15.2744 0.20375L16.2193 0.28L17.0824 0.36C18.0191 0.445347 18.9005 0.921184 19.5715 1.7038C20.2425 2.48642 20.6602 3.52567 20.7512 4.63875L20.7931 5.17L20.8719 6.3075C20.9454 7.48625 21 8.77125 21 10C21 11.2288 20.9454 12.5138 20.8719 13.6925L20.7931 14.83C20.7795 15.0125 20.7659 15.1887 20.7512 15.3612C20.6602 16.4745 20.2424 17.5139 19.5711 18.2966C18.8999 19.0792 18.0182 19.5549 17.0814 19.64L16.2204 19.7188L15.2754 19.7962L14.2653 19.8675L13.2111 19.9275C12.3079 19.9742 11.404 19.9984 10.5 20C9.59597 19.9984 8.69207 19.9742 7.7889 19.9275L6.7347 19.8675L5.72565 19.7962L4.78065 19.7188L3.91755 19.64C2.9809 19.5547 2.09953 19.0788 1.4285 18.2962C0.757463 17.5136 0.339753 16.4743 0.24885 15.3612L0.20685 14.83L0.1281 13.6925C0.0478144 12.4639 0.00508622 11.2323 0 10C0 8.77125 0.0546 7.48625 0.1281 6.3075L0.20685 5.17C0.2205 4.9875 0.23415 4.81125 0.24885 4.63875C0.339718 3.52587 0.757277 2.48677 1.4281 1.70418C2.09891 0.921589 2.98003 0.445628 3.9165 0.36L4.77855 0.28L5.72355 0.20375L6.73365 0.1325L7.78785 0.0725001C8.69137 0.0257912 9.59562 0.00161911 10.5 0ZM8.4 6.96875V13.0312C8.4 13.6088 8.925 13.9688 9.345 13.6812L13.755 10.65C13.851 10.5842 13.9307 10.4895 13.9861 10.3754C14.0415 10.2613 14.0707 10.1318 14.0707 10C14.0707 9.86818 14.0415 9.7387 13.9861 9.62458C13.9307 9.51047 13.851 9.41576 13.755 9.35L9.345 6.32C9.2492 6.25415 9.14052 6.2195 9.0299 6.21952C8.91928 6.21954 8.81061 6.25424 8.71482 6.32012C8.61904 6.386 8.53952 6.48075 8.48425 6.59483C8.42899 6.70891 8.39993 6.83831 8.4 6.97" fill="#5F6F52"/>
</svg>
