<?xml version="1.0" standalone="no"?>
<!DOCTYPE svg PUBLIC "-//W3C//DTD SVG 20010904//EN"
 "http://www.w3.org/TR/2001/REC-SVG-20010904/DTD/svg10.dtd">
<svg version="1.0" xmlns="http://www.w3.org/2000/svg"
 width="736.000000pt" height="736.000000pt" viewBox="0 0 736.000000 736.000000"
 preserveAspectRatio="xMidYMid meet">
<metadata>
Created by potrace 1.14, written by Peter Selinger 2001-2017
</metadata>
<g transform="translate(0.000000,736.000000) scale(0.100000,-0.100000)"
fill="#000000" stroke="none">
<path d="M1929 6876 c-2 -2 -29 -6 -59 -9 -68 -8 -142 -22 -223 -43 -34 -9
-69 -18 -77 -19 -27 -7 -134 -46 -175 -64 -22 -11 -43 -19 -48 -20 -38 -5
-308 -174 -397 -248 -49 -40 -208 -198 -253 -251 -42 -49 -140 -190 -173 -247
-15 -27 -32 -53 -37 -56 -5 -3 -8 -9 -8 -13 1 -3 -12 -34 -28 -69 -61 -129
-114 -275 -137 -382 -20 -90 -36 -181 -42 -240 -13 -136 -6 -480 12 -610 3
-17 7 -50 10 -75 15 -116 18 -134 22 -141 2 -4 6 -24 9 -45 3 -22 7 -48 10
-59 2 -11 12 -54 21 -95 8 -41 20 -82 25 -92 5 -9 9 -21 8 -25 -1 -4 0 -11 1
-15 1 -5 4 -12 5 -18 1 -5 4 -12 5 -15 1 -3 3 -11 4 -17 1 -10 165 -13 746
-13 410 0 755 2 767 5 18 4 69 98 252 463 126 251 226 457 222 457 -3 0 -1 4
4 8 6 4 70 128 144 275 147 294 165 318 266 353 143 48 311 -52 339 -201 3
-17 14 -57 25 -90 32 -100 61 -193 64 -212 2 -10 9 -31 15 -46 7 -16 12 -32
12 -36 0 -5 11 -44 25 -87 14 -43 27 -88 30 -99 2 -11 11 -42 20 -70 9 -27 18
-57 20 -65 2 -8 13 -44 24 -80 76 -251 98 -330 94 -330 -3 0 -1 -6 5 -12 8
-10 44 -127 57 -183 1 -5 5 -17 8 -25 13 -34 76 -247 81 -272 2 -14 9 -36 16
-47 6 -12 8 -21 5 -21 -3 0 -1 -9 5 -21 6 -11 13 -29 15 -40 2 -11 18 -66 36
-121 l31 -102 16 30 c9 16 17 31 17 34 1 3 19 39 40 80 21 41 40 77 40 80 4
14 19 46 24 50 3 3 55 106 116 230 60 124 114 231 119 237 9 14 66 132 64 136
0 1 14 26 31 55 17 29 31 57 31 62 0 17 70 80 117 104 96 48 231 21 303 -61
17 -19 135 -243 263 -498 l231 -464 792 0 793 1 14 31 c27 58 99 222 102 232
1 6 5 17 8 25 35 83 141 440 131 440 -3 0 0 8 5 18 5 10 12 38 16 62 4 25 9
48 11 52 2 3 7 27 9 51 3 25 8 56 10 68 3 13 8 44 11 69 3 25 7 56 9 69 19
114 26 520 12 636 -22 182 -58 324 -119 475 -22 52 -40 100 -41 105 -8 33
-183 326 -206 345 -3 3 -24 28 -45 55 -22 28 -55 65 -73 83 -18 17 -31 32 -29
32 4 0 -62 63 -139 134 -16 15 -42 35 -57 44 -16 9 -28 20 -28 24 0 4 -6 8
-14 8 -8 0 -16 4 -18 9 -5 15 -176 119 -258 157 -41 20 -83 40 -92 45 -10 5
-25 9 -33 9 -8 0 -15 4 -15 10 0 5 -3 9 -7 8 -5 -1 -53 13 -108 30 -55 17
-111 33 -125 36 -14 2 -36 7 -50 10 -101 24 -186 31 -355 31 -142 -1 -261 -8
-305 -20 -8 -2 -31 -7 -50 -10 -126 -21 -291 -78 -453 -155 -242 -116 -492
-313 -692 -545 -91 -106 -83 -100 -103 -77 -9 11 -37 43 -62 72 -62 73 -172
184 -254 255 -63 55 -250 195 -261 195 -2 0 -28 15 -57 33 -62 39 -242 127
-261 127 -7 0 -18 5 -23 10 -6 6 -21 13 -35 15 -13 3 -33 9 -44 14 -44 20
-231 64 -330 76 -49 6 -391 16 -396 11z"/>
<path d="M2647 4252 c-92 -185 -167 -341 -166 -346 0 -5 -3 -12 -9 -15 -5 -3
-42 -73 -82 -155 -91 -185 -132 -230 -230 -254 -31 -7 -284 -11 -797 -11
l-751 0 -16 35 c-63 136 -101 232 -147 369 -43 128 -33 120 -130 121 -115 1
-178 -18 -232 -71 -60 -58 -81 -106 -83 -186 -2 -84 29 -154 89 -203 69 -57
104 -64 317 -64 105 -1 194 -3 199 -7 5 -3 26 -40 47 -83 21 -42 41 -79 44
-82 3 -3 14 -23 25 -45 63 -124 302 -490 362 -553 7 -7 13 -16 13 -20 0 -4 13
-21 28 -38 15 -17 38 -46 52 -64 14 -18 33 -42 44 -54 10 -11 30 -36 45 -55
14 -19 35 -44 46 -56 11 -12 56 -61 100 -111 130 -145 363 -375 589 -579 12
-11 156 -135 196 -169 14 -11 59 -48 100 -81 41 -33 77 -62 80 -65 3 -3 41
-34 85 -68 44 -35 87 -68 95 -75 8 -7 60 -46 115 -87 55 -41 102 -77 105 -80
3 -3 28 -21 55 -39 28 -19 52 -38 55 -41 3 -3 34 -26 70 -51 36 -24 70 -48 77
-54 6 -5 28 -21 48 -35 20 -14 56 -40 80 -57 24 -18 48 -33 54 -33 5 0 11 -4
13 -9 2 -4 50 -40 108 -78 96 -63 182 -100 250 -110 63 -8 165 -2 225 13 33 9
162 75 182 93 10 9 36 28 58 41 22 13 45 28 50 33 6 4 93 67 195 139 102 72
187 135 188 139 2 5 8 9 13 9 5 0 38 22 72 48 34 27 100 77 147 112 47 36 90
69 97 75 7 5 18 15 25 20 218 174 227 180 368 302 210 179 281 245 480 443
164 164 234 238 320 340 25 29 50 58 55 64 6 6 30 36 55 66 25 30 48 57 53 58
4 2 7 8 7 13 0 6 10 21 23 34 23 26 54 65 117 155 22 30 43 60 47 65 4 6 20
29 35 52 l27 41 -742 0 c-408 1 -752 3 -764 6 -42 9 -91 37 -126 73 -24 24
-84 132 -188 340 l-152 306 -284 -569 c-172 -344 -297 -582 -315 -601 -66 -68
-178 -96 -266 -67 -98 34 -149 93 -189 223 -15 47 -28 91 -29 96 -3 15 -45
158 -51 175 -3 8 -7 20 -8 26 -3 12 -30 102 -67 219 -10 33 -20 71 -23 83 -2
12 -7 27 -10 32 -3 5 -8 18 -10 27 -2 10 -18 63 -35 118 -17 55 -33 107 -35
116 -6 27 -45 162 -55 189 -16 46 -64 205 -65 215 0 6 -10 42 -23 80 -12 39
-27 84 -32 100 -49 165 -63 210 -61 210 1 0 -10 33 -23 73 -14 39 -23 72 -21
72 2 0 -3 16 -11 35 -8 19 -14 37 -14 40 0 21 -1 25 -7 25 -5 -1 -83 -153
-176 -338z"/>
<path d="M6730 3465 c-4 -5 -31 -55 -60 -110 -29 -55 -58 -103 -64 -107 -6 -4
-7 -8 -3 -8 9 0 0 -16 -101 -178 -35 -57 -61 -106 -58 -109 3 -3 156 -6 340
-5 239 0 345 3 373 12 183 60 241 286 109 432 -28 31 -97 68 -140 75 -61 10
-388 8 -396 -2z"/>
</g>
</svg>
