<svg width="15" height="15" viewBox="0 0 15 15" fill="none" xmlns="http://www.w3.org/2000/svg">
<path d="M7.93994 10.4652L11.4399 6.26523H4.43994L7.93994 10.4652Z" fill="#343A40"/>
<path d="M7.93994 0.665222C4.08014 0.665222 0.939941 3.80542 0.939941 7.66522C0.939941 11.525 4.08014 14.6652 7.93994 14.6652C11.7997 14.6652 14.9399 11.525 14.9399 7.66522C14.9399 3.80542 11.7997 0.665222 7.93994 0.665222ZM7.93994 13.2652C4.85224 13.2652 2.33994 10.7529 2.33994 7.66522C2.33994 4.57752 4.85224 2.06522 7.93994 2.06522C11.0276 2.06522 13.5399 4.57752 13.5399 7.66522C13.5399 10.7529 11.0276 13.2652 7.93994 13.2652Z" fill="#343A40"/>
</svg>
