<?xml version="1.0" encoding="utf-8"?><svg viewBox="0 0 202 84" xmlns="http://www.w3.org/2000/svg" xmlns:xlink="http://www.w3.org/1999/xlink"><style>:root>svg{display:none}:root>svg:target{display:block}</style><svg viewBox="0 0 15 15" id="arrow-down" xmlns="http://www.w3.org/2000/svg"><path d="M7.94 10.465l3.5-4.2h-7l3.5 4.2z"/><path d="M7.94.665c-3.86 0-7 3.14-7 7s3.14 7 7 7 7-3.14 7-7-3.14-7-7-7zm0 12.6a5.607 5.607 0 01-5.6-5.6c0-3.087 2.512-5.6 5.6-5.6 3.088 0 5.6 2.513 5.6 5.6 0 3.088-2.512 5.6-5.6 5.6z"/></svg><svg viewBox="0 0 45 45" id="arrow-left" xmlns="http://www.w3.org/2000/svg"><g opacity=".5"><path d="M22.5 45C10.059 45 0 34.941 0 22.5S10.059 0 22.5 0 45 10.059 45 22.5 34.941 45 22.5 45zm0-42.353c-10.985 0-19.853 8.868-19.853 19.853 0 10.985 8.868 19.853 19.853 19.853 10.985 0 19.853-8.868 19.853-19.853 0-10.985-8.868-19.853-19.853-19.853z"/><path d="M22.897 35.338L10.06 22.5 22.897 9.662l1.853 1.853L13.765 22.5 24.75 33.485l-1.853 1.853z"/><path d="M11.912 21.177h22.5v2.647h-22.5v-2.648z"/></g></svg><svg viewBox="0 0 45 45" id="arrow-right" xmlns="http://www.w3.org/2000/svg"><path d="M22.5 0C34.941 0 45 10.059 45 22.5S34.941 45 22.5 45 0 34.941 0 22.5 10.059 0 22.5 0zm0 42.353c10.985 0 19.853-8.868 19.853-19.853 0-10.985-8.868-19.853-19.853-19.853-10.985 0-19.853 8.868-19.853 19.853 0 10.985 8.868 19.853 19.853 19.853z"/><path d="M22.103 9.662L34.94 22.5 22.103 35.338l-1.853-1.853L31.235 22.5 20.25 11.515l1.853-1.853z"/><path d="M33.088 23.823h-22.5v-2.647h22.5v2.648z"/></svg><svg viewBox="0 0 14 15" id="cart" xmlns="http://www.w3.org/2000/svg"><path fill-rule="evenodd" clip-rule="evenodd" d="M4.221 1.168A1.36 1.36 0 015.448.392h3.104a1.36 1.36 0 011.227.776c.53.004.943.028 1.313.173.44.172.824.465 1.106.845.285.384.419.875.602 1.55l.576 2.112.217.653.018.023c.7.895.367 2.227-.299 4.888-.423 1.694-.635 2.54-1.266 3.034-.632.492-1.504.492-3.25.492H5.204c-1.746 0-2.618 0-3.25-.492-.631-.493-.843-1.34-1.266-3.034-.666-2.661-.999-3.993-.3-4.888l.02-.023.216-.653.576-2.112c.184-.675.318-1.167.602-1.55.282-.38.666-.673 1.106-.845.37-.145.782-.17 1.313-.173zm.002 1.165c-.514.005-.72.025-.891.092-.237.092-.444.25-.596.455-.136.184-.217.44-.442 1.268L1.852 5.77c.791-.14 1.872-.14 3.351-.14h3.593c1.48 0 2.56 0 3.352.14l-.442-1.621c-.225-.828-.306-1.085-.442-1.269a1.358 1.358 0 00-.596-.455c-.17-.067-.377-.086-.89-.092a1.358 1.358 0 01-1.226.775H5.448a1.358 1.358 0 01-1.225-.774z"/></svg><svg viewBox="0 0 22 22" id="facebook" xmlns="http://www.w3.org/2000/svg"><path d="M21.501 11.278c0-5.75-4.667-10.416-10.417-10.416S.668 5.528.668 11.278c0 5.042 3.583 9.24 8.333 10.209v-7.083H6.918v-3.126H9V8.674a3.65 3.65 0 013.646-3.646h2.604v3.125h-2.083c-.573 0-1.042.47-1.042 1.042v2.083h3.125v3.125h-3.125v7.24c5.26-.52 9.375-4.958 9.375-10.365z"/></svg><svg viewBox="0 0 84 84" id="iconoir_yoga" xmlns="http://www.w3.org/2000/svg"><path d="M53.427 55.351l3.813 8.2s17.142 3.64 17.142 12.298c0 6.15-7.626 6.15-7.626 6.15H46.445l-10-5.555"/><path d="M30.573 55.351l-3.809 8.2S9.618 67.191 9.618 75.849c0 6.15 7.626 6.15 7.626 6.15h9.2l10-5.555 12.223-7.777"/><path d="M2 59.449s9.524-2.049 15.24-4.098C22.951 26.65 40.089 28.698 42 28.698c1.907 0 19.049-2.05 24.76 26.653C72.476 57.396 82 59.45 82 59.45M42 19.778A8.889 8.889 0 1042 2a8.889 8.889 0 000 17.778z"/></svg><svg viewBox="0 0 21 22" id="instagram" xmlns="http://www.w3.org/2000/svg"><path d="M11.488.837c.76-.003 1.52.004 2.28.023l.202.007c.234.008.464.019.742.031 1.108.052 1.865.227 2.528.485a5.068 5.068 0 011.846 1.202c.53.52.94 1.15 1.201 1.844.257.664.432 1.421.484 2.53.013.277.023.508.032.741l.006.202c.018.76.026 1.52.024 2.28v2.141c.004.76-.005 1.52-.023 2.28l-.006.203-.031.741c-.053 1.108-.23 1.865-.486 2.528a5.088 5.088 0 01-1.201 1.846c-.52.53-1.15.94-1.846 1.201-.663.257-1.42.432-2.528.485-.278.012-.508.022-.742.03l-.202.007c-.76.019-1.52.027-2.28.024l-.777.001H9.347a78.78 78.78 0 01-2.28-.024l-.202-.006-.741-.031c-1.109-.053-1.865-.23-2.53-.486a5.094 5.094 0 01-1.844-1.2 5.145 5.145 0 01-1.203-1.848c-.257-.663-.432-1.42-.484-2.528a77.313 77.313 0 01-.031-.742l-.005-.202c-.02-.76-.028-1.52-.026-2.28V10.18c-.003-.76.004-1.52.023-2.279L.03 7.7c.008-.233.019-.464.031-.741.052-1.11.227-1.865.484-2.53A5.083 5.083 0 011.75 2.586a5.101 5.101 0 011.843-1.203c.665-.258 1.42-.433 2.53-.485l.741-.031.202-.005c.76-.02 1.52-.028 2.28-.026h2.141zm-1.07 5.207a5.208 5.208 0 100 10.417 5.208 5.208 0 000-10.417zm0 2.083a3.125 3.125 0 11-.002 6.251 3.125 3.125 0 01.002-6.25m5.47-3.646a1.302 1.302 0 000 2.602 1.302 1.302 0 000-2.605"/></svg><svg viewBox="0 0 46 40" id="logo" xmlns="http://www.w3.org/2000/svg"><path d="M16.559 9.098a1.639 1.639 0 013.035.262l3.728 12.429 3.072-6.137a1.638 1.638 0 012.931 0l2.82 5.65h9.91a21.821 21.821 0 002.186-9.765C44.177 5.176 39.074 0 32.865 0c-4.924 0-8.192 3.025-9.925 5.223-1.73-2.2-5-5.223-9.926-5.223C6.806 0 1.703 5.176 1.638 11.537a21.622 21.622 0 00.915 6.487h9.543l4.463-8.926z"/><path d="M29.667 23.673l-1.811-3.623-3.45 6.9a1.638 1.638 0 01-1.607.9 1.639 1.639 0 01-1.434-1.162L17.637 14.26l-3.072 6.136a1.64 1.64 0 01-1.456.905H3.825c.956 2 2.228 3.969 3.817 5.905 1.922 2.344 5.407 6.09 13.456 11.554a3.26 3.26 0 003.686 0c8.049-5.464 11.534-9.21 13.456-11.553a32.478 32.478 0 001.946-2.628h-9.053a1.64 1.64 0 01-1.466-.906zm14.574-2.371h-2.186a26.655 26.655 0 01-1.869 3.277h4.055a1.639 1.639 0 000-3.277zM1.64 18.024a1.639 1.639 0 100 3.277h2.186a23.065 23.065 0 01-1.272-3.277H1.64z"/></svg><svg viewBox="0 0 80 82" id="material-symbols_spa" xmlns="http://www.w3.org/2000/svg"><path d="M11.696 65.868c3.305 3.72 7.338 6.746 12.118 9.07 4.332 2.108 9.219 3.59 14.672 4.434-.1-6.65-.788-12.338-2.042-17.085-1.352-5.12-3.54-9.327-6.532-12.667L11.696 65.868zm0 0C8.39 62.144 5.864 57.82 4.12 52.883c-1.579-4.472-2.45-9.41-2.598-14.822 6.529.754 12.05 2.007 16.589 3.739 4.888 1.865 8.805 4.48 11.8 7.82L11.696 65.868zm19.641-48.65A68.354 68.354 0 0135.8 9.024 59.02 59.02 0 0140 3.215a59.603 59.603 0 014.201 5.81 67.758 67.758 0 014.461 8.188 72.072 72.072 0 013.34 8.694 55.74 55.74 0 011.792 7.451c-3.178 1.726-6.016 3.659-8.508 5.803-2.085 1.793-3.856 3.645-5.302 5.557-1.442-1.859-3.204-3.677-5.273-5.457-2.492-2.144-5.33-4.105-8.507-5.887a55.732 55.732 0 011.795-7.467 71.845 71.845 0 013.34-8.689zm26.746 26.06c4.92-3.04 11.685-4.852 20.404-5.321-.21 9.602-2.944 17.865-8.163 24.854-5.148 6.893-12.085 11.789-20.875 14.675-.17-3.982-.502-7.711-1-11.187-.546-3.819-1.378-7.449-2.5-10.888 2.982-4.93 7.02-8.971 12.134-12.133z"/></svg><svg viewBox="0 0 24 22" id="park" xmlns="http://www.w3.org/2000/svg"><path d="M16.939 1.877h5.729L7.564 20.627h-5.73l15.104-18.75z"/><path d="M7.564 1.877h-5.73l15.104 18.75h5.73L7.564 1.877z"/></svg><svg viewBox="0 0 20 21" id="ph_caret-circle-right-light" xmlns="http://www.w3.org/2000/svg"><path d="M9.96.37a9.96 9.96 0 109.962 9.96A9.973 9.973 0 009.96.37zm0 18.75a8.79 8.79 0 118.79-8.79 8.799 8.799 0 01-8.79 8.79zm2.759-9.204a.586.586 0 010 .829L8.813 14.65a.586.586 0 01-.829-.828l3.492-3.493-3.492-3.492a.586.586 0 01.829-.828l3.906 3.906z"/></svg><svg viewBox="0 0 202 40" id="primary-logo" xmlns="http://www.w3.org/2000/svg"><path d="M16.559 9.098a1.639 1.639 0 013.035.262l3.728 12.429 3.072-6.137a1.638 1.638 0 012.931 0l2.82 5.65h9.91a21.821 21.821 0 002.186-9.765C44.177 5.176 39.074 0 32.865 0c-4.924 0-8.192 3.025-9.925 5.223-1.73-2.2-5-5.223-9.926-5.223C6.806 0 1.703 5.176 1.638 11.537a21.622 21.622 0 00.915 6.487h9.543l4.463-8.926z"/><path d="M29.667 23.673l-1.811-3.623-3.45 6.9a1.638 1.638 0 01-1.607.9 1.639 1.639 0 01-1.434-1.162L17.637 14.26l-3.072 6.136a1.64 1.64 0 01-1.456.905H3.825c.956 2 2.228 3.969 3.817 5.905 1.922 2.344 5.407 6.09 13.456 11.554a3.26 3.26 0 003.686 0c8.049-5.464 11.534-9.21 13.456-11.553a32.478 32.478 0 001.946-2.628h-9.053a1.64 1.64 0 01-1.466-.906zm14.574-2.371h-2.186a26.655 26.655 0 01-1.869 3.277h4.055a1.639 1.639 0 000-3.277zM1.64 18.024a1.639 1.639 0 100 3.277h2.186a23.065 23.065 0 01-1.272-3.277H1.64zM72.927 9.747v6.762c-.266.32-.676.668-1.23 1.043-.555.367-1.27.683-2.145.95-.875.265-1.934.398-3.176.398-1.102 0-2.105-.18-3.012-.54a6.508 6.508 0 01-2.343-1.605c-.649-.703-1.149-1.562-1.5-2.578-.352-1.024-.528-2.191-.528-3.504V9.607c0-1.313.168-2.48.504-3.504.344-1.024.832-1.887 1.465-2.59a6.27 6.27 0 012.262-1.606c.875-.367 1.847-.55 2.918-.55 1.484 0 2.703.242 3.656.726.953.477 1.68 1.14 2.18 1.992.508.844.82 1.813.937 2.907h-3.41c-.086-.579-.25-1.082-.492-1.512a2.544 2.544 0 00-1.043-1.008c-.445-.242-1.024-.363-1.734-.363-.587 0-1.11.12-1.57.363a3.106 3.106 0 00-1.15 1.043c-.312.461-.55 1.031-.714 1.711-.164.68-.246 1.469-.246 2.367v1.09c0 .89.086 1.68.258 2.367.172.68.425 1.254.761 1.723.344.46.766.809 1.266 1.043.5.234 1.082.351 1.746.351.555 0 1.016-.047 1.383-.14.375-.094.676-.207.902-.34a2.83 2.83 0 00.54-.399v-3.023H66.2V9.747h6.727zm6-.996v9.914h-3.375V5.985h3.176l.199 2.766zm3.82-2.847l-.058 3.128a8.153 8.153 0 00-.598-.058 6.075 6.075 0 00-.621-.035c-.477 0-.89.062-1.242.187a2.215 2.215 0 00-.867.527c-.227.235-.399.52-.516.856-.11.336-.172.719-.188 1.148l-.68-.21c0-.82.083-1.575.247-2.262.164-.696.402-1.301.715-1.817.32-.515.71-.914 1.172-1.195.46-.281.988-.422 1.581-.422.188 0 .38.016.575.047.195.023.355.059.48.106zM89.942 18.9c-.984 0-1.867-.157-2.648-.47a5.815 5.815 0 01-1.992-1.323 5.884 5.884 0 01-1.242-1.957 6.589 6.589 0 01-.434-2.391v-.469c0-.96.137-1.84.41-2.636a6.2 6.2 0 011.172-2.075 5.149 5.149 0 011.875-1.347c.734-.32 1.563-.48 2.484-.48.899 0 1.696.148 2.391.444a4.684 4.684 0 011.746 1.266c.477.547.836 1.203 1.078 1.969.243.758.364 1.601.364 2.531v1.406H85.067v-2.25h6.762v-.258a2.92 2.92 0 00-.258-1.253 1.99 1.99 0 00-.75-.891c-.335-.219-.765-.328-1.289-.328-.445 0-.828.098-1.148.293-.32.195-.582.469-.785.82a4.463 4.463 0 00-.446 1.242c-.093.47-.14.985-.14 1.547v.469c0 .508.07.976.21 1.406.15.43.356.801.622 1.114.273.312.601.554.984.726.39.172.832.258 1.324.258a4.11 4.11 0 001.7-.352 3.68 3.68 0 001.37-1.09l1.641 1.782c-.265.382-.629.75-1.09 1.101-.453.352-1 .64-1.64.867-.64.22-1.371.329-2.192.329zm13.969-3.094v-5.649c0-.406-.066-.754-.199-1.043a1.485 1.485 0 00-.621-.691c-.273-.164-.629-.246-1.066-.246-.375 0-.7.066-.973.2a1.408 1.408 0 00-.633.55 1.526 1.526 0 00-.223.832h-3.375c0-.54.125-1.05.375-1.535.25-.485.614-.91 1.09-1.278a5.38 5.38 0 011.7-.878c.664-.211 1.406-.317 2.226-.317.984 0 1.859.164 2.625.492.766.328 1.367.82 1.805 1.477.445.656.668 1.476.668 2.46v5.427c0 .695.043 1.265.129 1.71.086.438.211.82.375 1.149v.2h-3.411c-.164-.345-.289-.774-.375-1.29a10.642 10.642 0 01-.117-1.57zm.446-4.863l.023 1.91h-1.887c-.445 0-.832.05-1.16.152a2.15 2.15 0 00-.808.434 1.67 1.67 0 00-.469.633 2.18 2.18 0 00-.14.796c0 .29.066.551.198.785.133.227.325.407.575.54.25.125.543.187.879.187.507 0 .949-.101 1.324-.305.375-.203.664-.453.867-.75.211-.296.32-.578.328-.843l.891 1.43a5.75 5.75 0 01-.516.995c-.211.344-.48.668-.809.973a4.166 4.166 0 01-1.183.738c-.461.188-1.008.282-1.641.282-.804 0-1.535-.16-2.191-.48a3.996 3.996 0 01-1.547-1.349 3.537 3.537 0 01-.563-1.968c0-.664.125-1.254.375-1.77.25-.515.618-.949 1.102-1.3.492-.36 1.106-.63 1.84-.81.734-.187 1.586-.28 2.555-.28h1.957zm11.765-4.957v2.39h-7.383v-2.39h7.383zm-5.554-3.13h3.375v11.989c0 .367.046.648.14.844.102.195.25.332.445.41.196.07.442.105.739.105.211 0 .398-.008.562-.023a8.22 8.22 0 00.434-.07l.012 2.484a6.37 6.37 0 01-.938.223 6.952 6.952 0 01-1.113.082c-.742 0-1.391-.121-1.946-.364a2.682 2.682 0 01-1.265-1.195c-.297-.547-.445-1.266-.445-2.156V2.857zM127.747 1.603v17.062h-3.515V1.603h3.515zm6.797 7.289v2.742h-7.758V8.892h7.758zm.82-7.29v2.755h-8.578V1.603h8.578zm5.391 4.384v12.68h-3.387V5.985h3.387zm-3.598-3.305c0-.492.172-.899.516-1.219.344-.32.805-.48 1.383-.48.57 0 1.027.16 1.371.48.351.32.527.727.527 1.219 0 .492-.176.898-.527 1.219-.344.32-.801.48-1.371.48-.578 0-1.039-.16-1.383-.48-.344-.32-.516-.727-.516-1.22zm12.598 3.305v2.39h-7.383v-2.39h7.383zm-5.555-3.13h3.375v11.989c0 .367.047.648.141.844.102.195.25.332.445.41.196.07.442.105.739.105.21 0 .398-.008.562-.023.172-.024.316-.047.434-.07l.011 2.484a6.326 6.326 0 01-.937.223 6.952 6.952 0 01-1.113.082c-.743 0-1.391-.121-1.946-.364a2.678 2.678 0 01-1.265-1.195c-.297-.547-.446-1.266-.446-2.156V2.857zm10.782 5.837v9.972h-3.375V5.985h3.164l.211 2.708zm-.493 3.187h-.914c0-.937.121-1.781.364-2.531.242-.758.582-1.403 1.019-1.934a4.378 4.378 0 011.559-1.23c.609-.29 1.289-.434 2.039-.434.594 0 1.137.086 1.629.258.492.172.914.445 1.265.82.36.375.633.871.821 1.489.195.617.293 1.37.293 2.261v8.086h-3.399v-8.097c0-.563-.078-1-.234-1.313a1.315 1.315 0 00-.692-.656c-.296-.133-.664-.2-1.101-.2-.453 0-.848.09-1.184.27a2.36 2.36 0 00-.82.75 3.56 3.56 0 00-.481 1.102 5.42 5.42 0 00-.164 1.36zm16.477 7.02c-.984 0-1.867-.157-2.648-.47a5.812 5.812 0 01-1.993-1.323 5.884 5.884 0 01-1.242-1.957 6.59 6.59 0 01-.433-2.391v-.469c0-.96.136-1.84.41-2.636a6.19 6.19 0 011.172-2.075 5.137 5.137 0 011.875-1.347c.734-.32 1.562-.48 2.484-.48.898 0 1.695.148 2.391.444a4.689 4.689 0 011.746 1.266 5.466 5.466 0 011.078 1.969c.242.758.363 1.601.363 2.531v1.406h-10.078v-2.25h6.762v-.258a2.92 2.92 0 00-.258-1.253 1.99 1.99 0 00-.75-.891c-.336-.219-.766-.328-1.289-.328-.446 0-.828.098-1.149.293-.32.195-.582.469-.785.82a4.456 4.456 0 00-.445 1.242 7.882 7.882 0 00-.141 1.547v.469c0 .508.071.976.211 1.406.149.43.356.801.621 1.114.274.312.602.554.985.726.39.172.832.258 1.324.258.609 0 1.176-.117 1.699-.352a3.683 3.683 0 001.371-1.09l1.641 1.782c-.266.382-.629.75-1.09 1.101-.453.352-1 .64-1.641.867-.64.22-1.371.329-2.191.329zm13.98-3.739c0-.242-.07-.46-.211-.656-.14-.195-.402-.375-.785-.539-.375-.172-.918-.328-1.629-.469-.64-.14-1.238-.316-1.793-.527a6.228 6.228 0 01-1.429-.785 3.414 3.414 0 01-.938-1.078 3.005 3.005 0 01-.34-1.442c0-.531.114-1.031.34-1.5.235-.469.567-.883.996-1.242.438-.367.969-.652 1.594-.855.633-.211 1.344-.317 2.133-.317 1.101 0 2.047.176 2.836.527.797.352 1.406.836 1.828 1.454.43.609.645 1.304.645 2.086h-3.375c0-.329-.071-.622-.211-.88a1.394 1.394 0 00-.633-.62c-.281-.157-.649-.235-1.102-.235a2.2 2.2 0 00-.972.2 1.486 1.486 0 00-.633.515 1.237 1.237 0 00-.211.703c0 .195.039.371.117.527.086.149.223.286.41.41.188.126.43.243.727.352.304.102.679.196 1.125.282.914.187 1.73.433 2.449.738.719.297 1.289.703 1.711 1.218.422.508.633 1.176.633 2.004 0 .563-.125 1.078-.375 1.547-.25.469-.61.88-1.078 1.23-.469.345-1.032.614-1.688.81-.648.187-1.379.28-2.191.28-1.18 0-2.18-.21-3-.632-.813-.422-1.43-.957-1.852-1.606-.414-.656-.621-1.328-.621-2.015h3.199c.016.46.133.832.352 1.113.226.281.511.484.855.61.352.124.731.187 1.137.187.437 0 .801-.059 1.09-.176.289-.125.508-.289.656-.492a1.19 1.19 0 00.234-.727zm12.329 0a1.1 1.1 0 00-.211-.656c-.141-.195-.403-.375-.786-.539-.375-.172-.918-.328-1.628-.469a12.679 12.679 0 01-1.793-.527 6.215 6.215 0 01-1.43-.785 3.414 3.414 0 01-.938-1.078 3.004 3.004 0 01-.339-1.442c0-.531.113-1.031.339-1.5.235-.469.567-.883.996-1.242.438-.367.969-.652 1.594-.855.633-.211 1.344-.317 2.133-.317 1.102 0 2.047.176 2.836.527.797.352 1.406.836 1.828 1.454.43.609.645 1.304.645 2.086h-3.375c0-.329-.071-.622-.211-.88a1.394 1.394 0 00-.633-.62c-.281-.157-.649-.235-1.102-.235a2.2 2.2 0 00-.972.2 1.486 1.486 0 00-.633.515 1.237 1.237 0 00-.211.703c0 .195.039.371.117.527.086.149.223.286.41.41.188.126.43.243.727.352.305.102.68.196 1.125.282.914.187 1.73.433 2.449.738.719.297 1.289.703 1.711 1.218.422.508.633 1.176.633 2.004 0 .563-.125 1.078-.375 1.547-.25.469-.61.88-1.078 1.23-.469.345-1.032.614-1.688.81-.648.187-1.379.28-2.191.28-1.18 0-2.18-.21-3-.632-.813-.422-1.43-.957-1.852-1.606-.414-.656-.621-1.328-.621-2.015h3.199c.016.46.133.832.352 1.113.226.281.512.484.855.61.352.124.731.187 1.137.187.438 0 .801-.059 1.09-.176.289-.125.508-.289.656-.492a1.19 1.19 0 00.235-.727zM59.493 23.712l2.584 4.997 2.591-4.997h1.497l-3.432 6.235v3.718h-1.319v-3.718l-3.431-6.235h1.51zm6.973 6.337v-.157c0-.533.077-1.028.232-1.484.155-.46.379-.859.67-1.196a2.99 2.99 0 011.06-.793 3.29 3.29 0 011.394-.287c.52 0 .987.096 1.402.287.419.187.775.451 1.066.793.296.337.522.736.677 1.196.155.456.232.95.232 1.484v.157c0 .533-.077 1.028-.232 1.483a3.55 3.55 0 01-.677 1.197 3.102 3.102 0 01-1.06.793c-.41.187-.874.28-1.394.28-.52 0-.987-.093-1.401-.28a3.171 3.171 0 01-1.067-.793 3.612 3.612 0 01-.67-1.197 4.579 4.579 0 01-.232-1.483zm1.265-.157v.157c0 .37.043.718.13 1.046.086.324.216.61.39.861.177.25.398.45.662.595.264.141.572.212.923.212.346 0 .65-.07.91-.212.264-.146.482-.344.656-.595.173-.25.302-.537.39-.861a3.89 3.89 0 00.136-1.046v-.157a3.79 3.79 0 00-.137-1.032 2.658 2.658 0 00-.396-.869 1.886 1.886 0 00-.657-.601 1.841 1.841 0 00-.916-.219c-.346 0-.651.073-.916.219-.26.146-.478.346-.656.601-.173.251-.303.54-.39.869-.086.323-.13.667-.13 1.032zm11.846-3.623h1.149v7.239c0 .652-.132 1.208-.397 1.668-.264.46-.633.809-1.107 1.046-.47.241-1.012.362-1.627.362a3.99 3.99 0 01-.903-.123 3.64 3.64 0 01-1.011-.403 2.528 2.528 0 01-.827-.759l.663-.752c.31.374.633.634.97.78.342.145.68.218 1.012.218.401 0 .748-.075 1.04-.226.29-.15.516-.373.676-.67.164-.291.246-.651.246-1.08v-5.673l.116-1.627zm-5.093 3.78v-.143c0-.566.067-1.078.199-1.539.136-.465.33-.863.58-1.196a2.608 2.608 0 012.14-1.039c.465 0 .87.082 1.217.246.351.16.647.394.889.704.246.306.44.675.581 1.108.141.433.24.922.294 1.47v.628a6.443 6.443 0 01-.294 1.463 3.452 3.452 0 01-.581 1.108c-.242.305-.538.54-.889.704-.35.16-.76.239-1.23.239a2.57 2.57 0 01-1.203-.28 2.74 2.74 0 01-.916-.786 3.725 3.725 0 01-.588-1.19 5.408 5.408 0 01-.199-1.497zm1.265-.143v.143c0 .37.037.716.11 1.04.077.323.193.608.348.854.16.246.363.44.609.58.246.137.54.206.881.206.42 0 .766-.09 1.04-.267a1.93 1.93 0 00.649-.704c.164-.292.291-.608.383-.95V29.16a3.367 3.367 0 00-.233-.724 2.235 2.235 0 00-.396-.63 1.715 1.715 0 00-.595-.444 1.972 1.972 0 00-.834-.164 1.75 1.75 0 00-.895.22 1.744 1.744 0 00-.609.587 2.82 2.82 0 00-.348.861 4.72 4.72 0 00-.11 1.04zM87.008 32.4v-3.808c0-.292-.06-.545-.178-.759a1.163 1.163 0 00-.52-.506c-.232-.118-.519-.177-.86-.177-.32 0-.6.054-.841.164a1.47 1.47 0 00-.561.43.943.943 0 00-.198.575h-1.265c0-.265.068-.527.205-.787.137-.26.333-.494.588-.704.26-.214.57-.383.93-.506.364-.127.77-.191 1.216-.191.538 0 1.012.091 1.422.273.415.183.739.458.971.828.237.364.356.822.356 1.374v3.445c0 .246.02.508.061.786.046.278.112.517.198.718v.11h-1.319a2.364 2.364 0 01-.15-.582 4.695 4.695 0 01-.055-.683zm.219-3.22l.013.889h-1.278c-.36 0-.681.03-.964.088a2.22 2.22 0 00-.71.253 1.202 1.202 0 00-.438.431c-.1.169-.15.367-.15.595 0 .232.052.444.157.635.104.192.262.344.471.459.214.109.477.163.786.163.388 0 .73-.082 1.026-.246.296-.164.53-.364.704-.601.178-.237.273-.467.287-.69l.54.608a1.838 1.838 0 01-.26.636 3.063 3.063 0 01-1.401 1.196 2.717 2.717 0 01-1.08.205c-.502 0-.941-.098-1.32-.294a2.256 2.256 0 01-.874-.786 2.08 2.08 0 01-.308-1.114c0-.397.077-.745.232-1.046.155-.306.379-.559.67-.76.292-.204.643-.36 1.053-.464.41-.105.868-.157 1.374-.157h1.47zm12.003 1.97c0-.233-.037-.438-.11-.616a1.171 1.171 0 00-.369-.492 2.893 2.893 0 00-.724-.417 10.103 10.103 0 00-1.163-.403 10.707 10.707 0 01-1.333-.486 4.655 4.655 0 01-1.018-.622 2.454 2.454 0 01-.65-.8c-.15-.3-.225-.644-.225-1.032a2.42 2.42 0 01.923-1.927 3.31 3.31 0 011.073-.575 4.414 4.414 0 011.388-.205c.747 0 1.38.144 1.9.431.524.283.923.654 1.196 1.114.274.456.41.944.41 1.463h-1.312c0-.373-.08-.704-.24-.991a1.648 1.648 0 00-.724-.684c-.323-.168-.734-.253-1.23-.253-.47 0-.857.071-1.162.212a1.535 1.535 0 00-.684.575 1.568 1.568 0 00-.219.827c0 .21.043.4.13.574.091.169.23.326.417.472.191.145.433.28.725.403.296.123.649.241 1.06.355.564.16 1.052.338 1.462.534.41.196.748.417 1.012.663.269.241.467.517.595.827.132.305.198.652.198 1.039 0 .405-.082.772-.246 1.1-.164.329-.4.609-.704.841a3.4 3.4 0 01-1.101.54 5.096 5.096 0 01-1.422.185c-.46 0-.914-.064-1.36-.191a4.054 4.054 0 01-1.21-.575 3.01 3.01 0 01-.868-.943c-.215-.378-.322-.816-.322-1.313h1.313c0 .342.066.636.198.882.132.242.312.442.54.602.233.16.495.278.786.355.296.073.604.11.923.11.46 0 .85-.064 1.17-.192.318-.127.56-.31.724-.547.168-.237.253-.517.253-.84zm5.913-4.881v.97h-3.999v-.97h3.999zm-2.646-1.798h1.265v7.362c0 .25.039.44.116.568a.558.558 0 00.301.252c.123.041.255.062.396.062.105 0 .214-.01.328-.027a7.32 7.32 0 00.267-.055l.007 1.032c-.1.032-.233.062-.397.09a3.01 3.01 0 01-.581.047 1.97 1.97 0 01-.854-.185 1.374 1.374 0 01-.622-.615c-.151-.291-.226-.684-.226-1.176v-7.355zm8.654 7.485V26.27h1.272v7.396h-1.21l-.062-1.709zm.24-1.558l.526-.014c0 .492-.052.948-.157 1.367-.1.415-.264.775-.492 1.08a2.331 2.331 0 01-.896.718c-.369.169-.818.253-1.347.253-.36 0-.69-.053-.991-.157a1.979 1.979 0 01-.765-.486 2.193 2.193 0 01-.499-.854c-.114-.351-.171-.773-.171-1.265v-4.77h1.264v4.785c0 .333.037.608.11.827.077.214.18.385.307.513.133.123.278.21.438.26.164.05.333.075.506.075.537 0 .964-.103 1.278-.308.315-.21.54-.49.677-.84.141-.356.212-.75.212-1.183zm7.622 1.832v-9.065h1.271v10.5h-1.162l-.109-1.435zm-4.977-2.181v-.143c0-.566.069-1.078.205-1.539.142-.465.34-.863.595-1.196a2.616 2.616 0 012.126-1.039c.465 0 .87.082 1.217.246.351.16.647.394.888.704.247.306.44.675.582 1.108.141.433.239.922.293 1.47v.628a6.482 6.482 0 01-.293 1.463 3.45 3.45 0 01-.582 1.108c-.241.305-.537.54-.888.704-.351.16-.761.239-1.231.239-.433 0-.829-.093-1.189-.28a2.805 2.805 0 01-.923-.786 3.852 3.852 0 01-.595-1.19 5.263 5.263 0 01-.205-1.497zm1.272-.143v.143c0 .37.036.716.109 1.04.078.323.196.608.356.854.159.246.362.44.608.58.246.137.54.206.882.206.419 0 .763-.09 1.032-.267a1.99 1.99 0 00.656-.704c.164-.292.292-.608.383-.95V29.16a3.66 3.66 0 00-.239-.724 2.23 2.23 0 00-.397-.63 1.707 1.707 0 00-.594-.444 1.932 1.932 0 00-.828-.164 1.75 1.75 0 00-.895.22 1.74 1.74 0 00-.608.587 2.72 2.72 0 00-.356.861 4.72 4.72 0 00-.109 1.04zm8.319-3.637v7.396h-1.271V26.27h1.271zm-1.367-1.962c0-.205.061-.378.184-.52.128-.141.315-.212.561-.212.242 0 .426.071.554.212a.733.733 0 01.198.52.715.715 0 01-.198.506c-.128.136-.312.205-.554.205-.246 0-.433-.069-.561-.205a.744.744 0 01-.184-.506zm3.062 5.742v-.157c0-.533.078-1.028.233-1.484a3.52 3.52 0 01.67-1.196 2.988 2.988 0 011.059-.793c.415-.191.88-.287 1.395-.287.519 0 .986.096 1.401.287a2.98 2.98 0 011.067.793c.296.337.521.736.676 1.196.155.456.233.95.233 1.484v.157c0 .533-.078 1.028-.233 1.483-.155.456-.38.855-.676 1.197a3.103 3.103 0 01-1.06.793c-.41.187-.875.28-1.395.28-.519 0-.986-.093-1.401-.28a3.165 3.165 0 01-1.066-.793 3.609 3.609 0 01-.67-1.197 4.579 4.579 0 01-.233-1.483zm1.265-.157v.157c0 .37.043.718.13 1.046.086.324.216.61.39.861.177.25.398.45.663.595.264.141.572.212.922.212.347 0 .65-.07.91-.212a1.91 1.91 0 00.656-.595c.173-.25.303-.537.39-.861.091-.328.136-.677.136-1.046v-.157a3.79 3.79 0 00-.136-1.032 2.66 2.66 0 00-.397-.869 1.886 1.886 0 00-.656-.601 1.841 1.841 0 00-.916-.219 1.86 1.86 0 00-.916.219 1.96 1.96 0 00-.656.601c-.174.251-.304.54-.39.869a3.96 3.96 0 00-.13 1.032z"/></svg><svg viewBox="0 0 86 80" id="towels" xmlns="http://www.w3.org/2000/svg"><path d="M85.858 21.429c-.007-5.52-4.48-9.994-10-10H33a9.395 9.395 0 00-2.594.355c-.534.129-14.646 5.449-23.01 8.607h-.012a9.737 9.737 0 00-4.304 2.53 9.884 9.884 0 00-2.937 7.08 9.992 9.992 0 004.868 8.57 10 10 0 00-4.868 8.572 10 10 0 004.876 8.572 9.99 9.99 0 005.124 18.571H53a9.908 9.908 0 004.27-.972h.032l22.984-8.632a9.978 9.978 0 00.69-17.526 9.06 9.06 0 001.942-1.512 9.884 9.884 0 002.94-7.072 10.024 10.024 0 00-4.872-8.563c.71-.413 1.36-.92 1.934-1.508a9.884 9.884 0 002.938-7.072zM31.193 14.53A6.622 6.622 0 0133 14.286h42.858A7.152 7.152 0 0183 21.429a7.047 7.047 0 01-2.095 5.047 6.139 6.139 0 01-1.68 1.237c-.078.041-.143.08-.216.117-1.927.714-5.32 1.989-10.579 3.963l-6.348 2.384A9.993 9.993 0 0053 20H16.532c7.112-2.678 14.08-5.286 14.661-5.47zM3 30a7.053 7.053 0 012.103-5.054 6.88 6.88 0 013.136-1.822c.035-.011.077-.024.118-.04a6.96 6.96 0 011.786-.227H53A7.151 7.151 0 0160.143 30a7.193 7.193 0 01-3.873 6.353 1.306 1.306 0 00-.123.054 6.964 6.964 0 01-3.147.736H10.143A7.151 7.151 0 013 30zm0 17.143A7.156 7.156 0 0110.143 40H53a7.152 7.152 0 017.143 7.143 7.193 7.193 0 01-3.873 6.353 1.306 1.306 0 00-.123.054 6.963 6.963 0 01-3.147.736H10.143A7.151 7.151 0 013 47.143zm7.143 24.286a7.143 7.143 0 010-14.286H53a7.143 7.143 0 110 14.286H10.143zM83 55.714a7.051 7.051 0 01-2.094 5.048 7.165 7.165 0 01-1.75 1.3l-17.084 6.407a9.947 9.947 0 00-3.802-12.666l18.857-7.074A7.124 7.124 0 0183 55.715zm0-17.142a7.047 7.047 0 01-2.095 5.047 6.141 6.141 0 01-1.68 1.237c-.079.043-.153.081-.219.118L62.08 51.322a9.966 9.966 0 00-3.81-12.662l11.16-4.19c3.26-1.225 5.793-2.176 7.714-2.895A7.143 7.143 0 0183 38.572z"/><path d="M55.858 30c0-.789-.64-1.428-1.43-1.428H8.715a1.429 1.429 0 000 2.857H54.43c.789 0 1.428-.64 1.428-1.429zm0 17.143c0-.789-.64-1.428-1.43-1.428H8.715a1.429 1.429 0 000 2.857H54.43c.789 0 1.428-.64 1.428-1.429zm-1.429 15.714H8.714a1.429 1.429 0 100 2.858H54.43a1.429 1.429 0 100-2.858zM14.429 0C13.639 0 13 .64 13 1.429v2.857a1.429 1.429 0 002.857 0V1.429c0-.79-.64-1.429-1.428-1.429zM13 12.857a1.429 1.429 0 102.857 0V10A1.429 1.429 0 0013 10v2.857zm-1.428-7.143H8.714a1.429 1.429 0 100 2.857h2.858a1.429 1.429 0 100-2.857zm5.714 2.857h2.857a1.429 1.429 0 100-2.857h-2.857a1.429 1.429 0 100 2.857zm66.01 66.848a1.429 1.429 0 00-2.02 2.02l2.143 2.143a1.429 1.429 0 002.02-2.02l-2.143-2.143zm-6.306-2.266a1.429 1.429 0 002.02-2.02l-2.142-2.143a1.429 1.429 0 00-2.02 2.02l2.142 2.143zm-2.143 6.429a1.429 1.429 0 002.02 0l2.143-2.143a1.429 1.429 0 00-2.02-2.02l-2.142 2.143a1.429 1.429 0 000 2.02zm8.572-10.592l-2.143 2.143a1.429 1.429 0 102.02 2.02l2.143-2.143a1.429 1.429 0 00-2.02-2.02z"/></svg><svg viewBox="0 0 84 84" id="yoga-mat" xmlns="http://www.w3.org/2000/svg"><path d="M30.974 14.072h35.529M2 69.928c0-6.668 5.405-12.073 12.072-12.073 6.668 0 12.073 5.405 12.073 12.073C26.145 76.595 20.74 82 14.072 82 7.405 82 2 76.595 2 69.928z"/><path d="M2 69.928V14.072C2 7.405 7.405 2 14.072 2c6.668 0 12.073 5.405 12.073 12.072v55.856"/><path d="M6.829 69.928a7.243 7.243 0 1114.487 0 7.243 7.243 0 01-14.487 0z"/><path d="M11.658 69.928a2.414 2.414 0 114.829 0 2.414 2.414 0 01-4.829 0zm52.282.437l17.702-54.036a7.244 7.244 0 00-13.244-5.728L47.874 48.198c9.335 0 16.902 7.567 16.902 16.902.001 9.333-7.566 16.9-16.901 16.9H14.072"/></svg><svg viewBox="0 0 21 20" id="youtube" xmlns="http://www.w3.org/2000/svg"><path fill-rule="evenodd" clip-rule="evenodd" d="M10.5 0c.898 0 1.819.028 2.711.073l1.054.06 1.01.07.944.077.863.08c.937.085 1.819.561 2.49 1.344.67.782 1.088 1.822 1.18 2.935l.041.531.079 1.138C20.945 7.486 21 8.77 21 10s-.055 2.514-.128 3.693l-.079 1.137c-.014.182-.027.359-.042.531-.09 1.113-.509 2.153-1.18 2.936-.671.782-1.553 1.258-2.49 1.343l-.86.079-.946.077-1.01.072-1.054.06c-.903.046-1.807.07-2.711.072a54.363 54.363 0 01-2.711-.073l-1.054-.06-1.01-.07-.944-.078-.863-.079c-.937-.085-1.818-.561-2.49-1.344-.67-.782-1.088-1.822-1.18-2.935l-.041-.531-.079-1.137A60.457 60.457 0 010 10c0-1.229.055-2.514.128-3.692L.207 5.17c.014-.183.027-.359.042-.531.09-1.113.508-2.152 1.18-2.935C2.098.922 2.98.446 3.916.36l.862-.08.945-.076 1.01-.071 1.054-.06A54.556 54.556 0 0110.5 0zM8.4 6.969v6.062c0 .578.525.938.945.65l4.41-3.031a.702.702 0 00.231-.275.863.863 0 000-.75.702.702 0 00-.231-.275l-4.41-3.03a.555.555 0 00-.315-.1c-.11 0-.22.034-.315.1a.703.703 0 00-.23.275.863.863 0 00-.085.375"/></svg></svg>